HIERARCHY
ROOT joint_Root
{
	OFFSET 0.0 0.0 0.0
	CHANNELS 6 Xposition Yposition Zposition Zrotation Xrotation Yrotation 
	JOINT Hips
	{
		OFFSET -0.726466 93.3139 -2.00062
		CHANNELS 6 Xposition Yposition Zposition Zrotation Xrotation Yrotation 
		JOINT Spine
		{
			OFFSET 15.7357 0.0 0.0
			CHANNELS 6 Xposition Yposition Zposition Zrotation Xrotation Yrotation 
			JOINT Chest
			{
				OFFSET 8.98455 -0.406207 0.0
				CHANNELS 6 Xposition Yposition Zposition Zrotation Xrotation Yrotation 
				JOINT Neck
				{
					OFFSET 16.3773 0.0 0.0
					CHANNELS 6 Xposition Yposition Zposition Zrotation Xrotation Yrotation 
					JOINT Head
					{
						OFFSET 6.45672 0.0 0.0
						CHANNELS 6 Xposition Yposition Zposition Zrotation Xrotation Yrotation 
						End Site
						{
							OFFSET 0.0 0.0 0.0
						}
					}
				}
				JOINT Shoulder_L
				{
					OFFSET 12.9942 -0.242716 4.98039
					CHANNELS 6 Xposition Yposition Zposition Zrotation Xrotation Yrotation 
					JOINT UpperArm_L
					{
						OFFSET 5.34809 0.0 0.0
						CHANNELS 6 Xposition Yposition Zposition Zrotation Xrotation Yrotation 
						JOINT LowerArm_L
						{
							OFFSET 24.3286 1.87007e-05 0.0
							CHANNELS 6 Xposition Yposition Zposition Zrotation Xrotation Yrotation 
							JOINT Hand_L
							{
								OFFSET 22.2916 0.0 0.0
								CHANNELS 6 Xposition Yposition Zposition Zrotation Xrotation Yrotation 
								End Site
								{
									OFFSET 0.0 0.0 0.0
								}
							}
						}
					}
				}
				JOINT Shoulder_R
				{
					OFFSET 12.9945 -0.242716 -4.98039
					CHANNELS 6 Xposition Yposition Zposition Zrotation Xrotation Yrotation 
					JOINT UpperArm_R
					{
						OFFSET -5.34813 0.0 0.0
						CHANNELS 6 Xposition Yposition Zposition Zrotation Xrotation Yrotation 
						JOINT LowerArm_R
						{
							OFFSET -24.3289 0.000322201 0.0
							CHANNELS 6 Xposition Yposition Zposition Zrotation Xrotation Yrotation 
							JOINT Hand_R
							{
								OFFSET -22.2915 -0.000108084 0.0
								CHANNELS 6 Xposition Yposition Zposition Zrotation Xrotation Yrotation 
								End Site
								{
									OFFSET 0.0 0.0 0.0
								}
							}
						}
					}
				}
			}
		}
		JOINT UpperLeg_L
		{
			OFFSET -2.19248 -6.46944 0.0
			CHANNELS 6 Xposition Yposition Zposition Zrotation Xrotation Yrotation 
			JOINT LowerLeg_L
			{
				OFFSET 39.0811 0.0 -1.23785e-05
				CHANNELS 6 Xposition Yposition Zposition Zrotation Xrotation Yrotation 
				JOINT Foot_L
				{
					OFFSET 40.9854 0.0 -1.26872e-05
					CHANNELS 6 Xposition Yposition Zposition Zrotation Xrotation Yrotation 
					JOINT Toes_L
					{
						OFFSET 11.7543 0.0 0.0
						CHANNELS 6 Xposition Yposition Zposition Zrotation Xrotation Yrotation 
						End Site
						{
							OFFSET 0.0 0.0 0.0
						}
					}
				}
			}
		}
		JOINT UpperLeg_R
		{
			OFFSET -2.19251 6.46944 0.0
			CHANNELS 6 Xposition Yposition Zposition Zrotation Xrotation Yrotation 
			JOINT LowerLeg_R
			{
				OFFSET -39.0811 -0.00228153 -0.0401928
				CHANNELS 6 Xposition Yposition Zposition Zrotation Xrotation Yrotation 
				JOINT Foot_R
				{
					OFFSET -40.9854 0.0 0.0
					CHANNELS 6 Xposition Yposition Zposition Zrotation Xrotation Yrotation 
					JOINT Toes_R
					{
						OFFSET -11.7543 0.0 0.0
						CHANNELS 6 Xposition Yposition Zposition Zrotation Xrotation Yrotation 
						End Site
						{
							OFFSET 0.0 0.0 0.0
						}
					}
				}
			}
		}
	}
}
MOTION
Frames:	6
Frame Time:	0.0333333
0.000000 0.000000 0.000000 0.000000 0.000000 -0.000000 -0.179997 92.100800 -0.793330 87.919400 -0.555770 2.643510 15.735700 0.000005 -0.000001 82.922900 84.896600 -82.253000 8.984550 -0.406207 -0.000000 2.371530 -1.288090 1.365100 16.377300 -0.000001 -0.000001 1.542600 -3.307070 1.761920 6.456720 -0.000001 -0.000000 -0.480105 -2.291800 2.273400 12.994200 -0.242716 4.980390 -90.153700 0.444242 -70.912400 5.348090 -0.000007 -0.000001 -67.031800 39.555900 -13.923700 24.328600 0.000019 0.000005 3.886160 7.216210 -28.402900 22.291600 -0.000001 0.000005 7.325790 5.576700 -10.036400 12.994500 -0.242716 -4.980390 88.885100 2.846770 -68.602600 -5.348130 -0.000001 -0.000004 -48.109000 55.392600 -6.850550 -24.328900 0.000322 -0.000009 8.221890 4.788880 -59.971000 -22.291500 -0.000108 -0.000004 -0.467667 5.643610 -14.441100 -2.192480 -6.469440 -0.000000 -169.793000 -17.760300 -3.931340 39.081100 -0.000007 -0.000012 -0.178805 0.439057 22.158800 40.985400 -0.000006 -0.000013 -6.599970 -2.029220 -63.527500 11.754300 -0.000000 0.000003 -0.000153 -0.001474 -16.633600 -2.192510 6.469440 -0.000001 173.764000 22.821400 179.127000 -39.081100 -0.002282 -0.040193 -0.038069 0.122117 18.724600 -40.985400 0.000008 0.000006 -4.348260 0.907842 -62.547600 -11.754300 -0.000006 -0.000006 -0.003224 -0.043106 -18.326200
0.000000 0.000000 0.000000 0.000000 0.000000 -0.000000 -0.192719 92.099500 -0.794717 87.928500 -0.679442 2.650690 15.735700 0.000005 -0.000001 82.440200 84.829900 -81.689800 8.984550 -0.406207 -0.000000 2.494430 -1.393750 1.529560 16.377300 -0.000001 -0.000001 1.448370 -3.244480 1.873390 6.456720 -0.000001 -0.000000 -0.651266 -2.091900 2.678180 12.994200 -0.242716 4.980390 -90.200000 0.574104 -70.795700 5.348090 -0.000007 -0.000001 -65.756800 38.733500 -14.139000 24.328600 0.000019 0.000005 4.773320 8.494520 -29.478400 22.291600 -0.000001 0.000005 7.440080 5.578030 -10.106700 12.994500 -0.242716 -4.980390 89.093300 2.301420 -68.490700 -5.348130 -0.000001 -0.000004 -46.079500 57.702600 -6.435700 -24.328900 0.000322 -0.000009 12.427700 5.980110 -64.689500 -22.291500 -0.000108 -0.000004 -0.685743 5.648450 -14.861400 -2.192480 -6.469440 -0.000000 -169.779000 -17.776500 -3.873310 39.081100 -0.000007 -0.000012 -0.179125 0.440464 22.130500 40.985400 -0.000006 -0.000013 -6.630810 -2.087440 -63.536400 11.754300 -0.000000 0.000003 -0.000138 -0.001354 -16.629100 -2.192510 6.469440 -0.000001 173.778000 22.680400 179.096000 -39.081100 -0.002282 -0.040193 -0.039037 0.124816 18.746600 -40.985400 0.000008 0.000006 -4.398030 0.913156 -62.551900 -11.754300 -0.000006 -0.000006 -0.003194 -0.042783 -18.313100
0.000000 0.000000 0.000000 0.000000 0.000000 -0.000000 -0.268093 92.108100 -0.850390 87.907300 -0.853225 2.728740 15.735700 0.000005 -0.000001 82.019700 84.736700 -81.157700 8.984550 -0.406207 -0.000000 2.671340 -1.498470 1.757340 16.377300 -0.000001 -0.000001 1.401510 -3.136250 1.959350 6.456720 -0.000001 -0.000000 -0.978828 -1.878080 2.904490 12.994200 -0.242716 4.980390 -90.261900 0.743595 -70.597200 5.348090 -0.000007 -0.000001 -63.211500 37.814100 -15.291500 24.328600 0.000019 0.000005 5.185970 9.072940 -29.922400 22.291600 -0.000001 0.000005 7.161790 5.579450 -10.182300 12.994500 -0.242716 -4.980390 89.371500 1.594770 -68.488900 -5.348130 -0.000001 -0.000004 -44.974600 59.825000 -5.674010 -24.328900 0.000322 -0.000009 16.743000 6.666730 -68.892200 -22.291500 -0.000108 -0.000004 0.621470 5.655640 -15.574400 -2.192480 -6.469440 -0.000000 -169.681000 -17.909200 -3.751990 39.081100 -0.000007 -0.000012 -0.178016 0.439375 22.055900 40.985400 -0.000006 -0.000013 -6.677480 -2.154740 -63.461200 11.754300 -0.000000 0.000003 -0.000152 -0.001467 -16.633300 -2.192510 6.469440 -0.000001 173.839000 22.587000 179.101000 -39.081100 -0.002282 -0.040193 -0.040035 0.127602 18.767700 -40.985400 0.000008 0.000006 -4.278890 0.965384 -62.531500 -11.754300 -0.000006 -0.000006 -0.002911 -0.039594 -18.183300
0.000000 0.000000 0.000000 0.000000 0.000000 -0.000000 -0.387045 92.100400 -0.901712 87.854500 -1.019610 2.775660 15.735700 0.000005 -0.000001 82.195800 84.645300 -81.214100 8.984550 -0.406207 -0.000000 2.858650 -1.494860 1.998780 16.377300 -0.000001 -0.000001 1.297380 -3.010900 1.943910 6.456720 -0.000001 -0.000000 -1.251070 -1.761490 3.282900 12.994200 -0.242716 4.980390 -90.259700 0.732707 -70.483200 5.348090 -0.000007 -0.000001 -60.238000 35.473800 -16.985900 24.328600 0.000019 0.000005 5.770800 10.165200 -29.796700 22.291600 -0.000001 0.000005 6.616340 5.573880 -9.888340 12.994500 -0.242716 -4.980390 89.615500 0.977763 -68.532200 -5.348130 -0.000001 -0.000004 -44.852700 61.423900 -4.321540 -24.328900 0.000322 -0.000009 19.576800 6.429160 -72.522600 -22.291500 -0.000108 -0.000004 1.398590 5.659250 -15.964500 -2.192480 -6.469440 -0.000000 -169.527000 -17.896100 -3.698160 39.081100 -0.000007 -0.000012 -0.178251 0.439742 22.065500 40.985400 -0.000006 -0.000013 -6.785070 -2.266530 -63.440400 11.754300 -0.000000 0.000003 -0.000130 -0.001285 -16.626600 -2.192510 6.469440 -0.000001 173.977000 22.472700 179.041000 -39.081100 -0.002282 -0.040193 -0.041751 0.131935 18.862100 -40.985400 0.000008 0.000006 -4.353890 1.005390 -62.559500 -11.754300 -0.000006 -0.000006 -0.003171 -0.042517 -18.302300
0.000000 0.000000 0.000000 0.000000 0.000000 -0.000000 -0.577187 92.116600 -0.976364 87.749600 -1.092570 2.857350 15.735700 0.000005 -0.000001 82.149800 84.563400 -81.010100 8.984550 -0.406207 -0.000000 3.022530 -1.530760 2.317430 16.377300 -0.000001 -0.000001 1.273310 -2.894710 1.936210 6.456720 -0.000001 -0.000000 -1.554700 -1.674500 3.501090 12.994200 -0.242716 4.980390 -90.203300 0.569667 -70.358100 5.348090 -0.000007 -0.000001 -57.289700 31.627000 -18.808000 24.328600 0.000019 0.000005 5.528720 10.180600 -28.705900 22.291600 -0.000001 0.000005 6.861080 5.576110 -10.005100 12.994500 -0.242716 -4.980390 89.837100 0.415838 -68.608200 -5.348130 -0.000001 -0.000004 -45.572400 62.939700 -2.505800 -24.328900 0.000322 -0.000009 20.824100 5.653960 -75.477900 -22.291500 -0.000108 -0.000004 3.208710 5.664640 -16.608300 -2.192480 -6.469440 -0.000000 -169.281000 -17.863700 -3.591880 39.081100 -0.000007 -0.000012 -0.176831 0.439283 21.927200 40.985400 -0.000006 -0.000013 -6.911620 -2.371930 -63.283600 11.754300 -0.000000 0.000003 -0.000140 -0.001372 -16.629800 -2.192510 6.469440 -0.000001 174.215000 22.526400 179.066000 -39.081100 -0.002282 -0.040193 -0.038936 0.123670 18.865800 -40.985400 0.000008 0.000006 -4.060840 1.088750 -62.565400 -11.754300 -0.000006 -0.000006 -0.002972 -0.040281 -18.211300
0.000000 0.000000 0.000000 0.000000 0.000000 -0.000000 -0.832591 92.111700 -1.049300 87.626900 -1.088630 2.928240 15.735700 0.000005 -0.000001 81.948800 84.487300 -80.644900 8.984550 -0.406207 -0.000000 3.171250 -1.594790 2.649130 16.377300 -0.000001 -0.000001 1.247130 -2.775550 1.976020 6.456720 -0.000001 -0.000000 -1.800020 -1.524430 3.797700 12.994200 -0.242716 4.980390 -90.075500 0.210715 -70.278800 5.348090 -0.000007 -0.000001 -54.624300 26.142100 -20.534500 24.328600 0.000019 0.000005 4.928720 9.579810 -27.391600 22.291600 -0.000001 0.000005 7.125040 5.577780 -10.093700 12.994500 -0.242716 -4.980390 90.018800 -0.048286 -68.698600 -5.348130 -0.000001 -0.000004 -46.859700 64.239300 -0.624035 -24.328900 0.000322 -0.000009 21.881700 4.888820 -78.020600 -22.291500 -0.000108 -0.000004 4.637390 5.667950 -17.040000 -2.192480 -6.469440 -0.000000 -168.948000 -17.776200 -3.519620 39.081100 -0.000007 -0.000012 -0.179553 0.447569 21.859600 40.985400 -0.000006 -0.000013 -7.079370 -2.317970 -63.161500 11.754300 -0.000000 0.000003 -0.000138 -0.001355 -16.629200 -2.192510 6.469440 -0.000001 174.481000 22.717500 179.039000 -39.081100 -0.002282 -0.040193 -0.040465 0.127118 19.007300 -40.985400 0.000008 0.000006 -3.857850 1.206860 -62.657200 -11.754300 -0.000006 -0.000006 -0.003300 -0.043954 -18.360800
